<svg fill="#000000" height="200px" width="200px" version="1.1" id="Layer_1" xmlns="http://www.w3.org/2000/svg" xmlns:xlink="http://www.w3.org/1999/xlink" viewBox="0 0 512 512" xml:space="preserve"><g id="SVGRepo_bgCarrier" stroke-width="0"></g><g id="SVGRepo_tracerCarrier" stroke-linecap="round" stroke-linejoin="round"></g><g id="SVGRepo_iconCarrier"> <g> <g> <path d="M347.714,251.524l3.858-3.858c23.783-23.783,22.122-53.909,12.684-73.829l45.992-45.992 c8.467,4.058,17.944,6.337,27.944,6.337c35.759,0,64.852-29.093,64.854-64.854c-0.001-35.757-29.096-64.849-64.854-64.852 c-35.757,0-64.851,29.094-64.852,64.852c0,10,2.278,19.477,6.338,27.944l-45.993,45.993c-16.076-8.236-49.083-12.06-73.828,12.684 l-3.858,3.858l-3.859-3.859c-19.927-19.927-49.697-24.136-73.8-12.655L104.374,69.33L89.089,84.618 c-3.933,3.933-9.548,6.213-15.285,6.213c-11.462,0-21.617-9.365-21.617-21.499c0-11.734,9.525-21.619,21.617-21.619L73.787,4.478 c-36.845,0-64.835,30.872-64.835,64.854c0,37.596,31.352,64.852,64.852,64.852c9.843,0,19.352-2.179,27.974-6.307l45.989,45.989 c-11.48,24.1-7.269,53.872,12.656,73.8l3.859,3.859L0,415.808l91.714,91.715l164.285-164.285l164.283,164.285L512,415.809 L347.714,251.524z M438.19,47.712c11.92,0,21.62,9.699,21.62,21.617c0,11.921-9.698,21.619-21.619,21.619 c-11.92,0-21.617-9.698-21.617-21.617S426.271,47.712,438.19,47.712z M190.995,186.522c8.431-8.429,22.145-8.429,30.573-0.001 l3.859,3.859l-30.573,30.573l-3.858-3.858C182.567,208.666,182.567,194.95,190.995,186.522z M91.712,446.379l-30.57-30.571 l229.284-229.285c6.941-6.941,20.666-9.909,30.574,0c9.006,9.006,7.751,22.822,0,30.571L91.712,446.379z M286.57,312.667 l30.573-30.571l133.712,133.713l-30.573,30.571L286.57,312.667z"></path> </g> </g> </g></svg>