<svg fill="#000000" viewBox="-7 0 32 32" version="1.1" xmlns="http://www.w3.org/2000/svg"><g id="SVGRepo_bgCarrier" stroke-width="0"></g><g id="SVGRepo_tracerCarrier" stroke-linecap="round" stroke-linejoin="round"></g><g id="SVGRepo_iconCarrier"> <title>drugs</title> <path d="M17.56 16.68c-0.64-1.32-1.72-2.32-3.040-2.88 1.16-1.72 0.96-4.040-0.56-5.52-0.84-0.8-1.92-1.24-3.040-1.24h-0.040c-1.16 0-2.24 0.48-3.080 1.28l-6.56 6.72c-0.8 0.84-1.28 1.92-1.24 3.080 0 1.16 0.48 2.24 1.28 3.080 0.84 0.84 1.96 1.24 3.040 1.24 0.96 0 1.88-0.32 2.68-0.92 0.040 0.040 0.040 0.12 0.080 0.16 0.96 2.040 3 3.32 5.24 3.32 0.88 0 1.68-0.2 2.48-0.56 2.88-1.4 4.12-4.84 2.76-7.76zM15.6 16.68l-7.32 3.44c-0.2-0.76-0.16-1.6 0.12-2.36 0.36-1.040 1.12-1.88 2.12-2.36 0.56-0.28 1.16-0.4 1.76-0.4 1.32 0.040 2.56 0.68 3.32 1.68zM9 9.48c0.52-0.52 1.16-0.8 1.88-0.8s1.4 0.28 1.92 0.76c1.040 1.040 1.080 2.72 0.040 3.8l-0.12 0.12c-0.12 0-0.28 0-0.4 0-0.88 0-1.68 0.2-2.48 0.56-0.4 0.2-0.8 0.44-1.12 0.72l-2.4-2.36 2.68-2.8zM6.24 19.96c-1.040 1.040-2.72 1.080-3.8 0.040-0.52-0.52-0.8-1.16-0.8-1.88s0.28-1.4 0.76-1.92l2.72-2.76 2.44 2.4c-0.28 0.4-0.52 0.88-0.72 1.36-0.28 0.8-0.4 1.6-0.32 2.44l-0.28 0.32zM14.080 22.92c-0.56 0.28-1.16 0.4-1.76 0.4-1.32 0-2.52-0.64-3.32-1.64l7.32-3.44c0.44 1.84-0.44 3.8-2.24 4.68z"></path> </g></svg>