<svg height="200px" width="200px" version="1.1" id="Layer_1" xmlns="http://www.w3.org/2000/svg" xmlns:xlink="http://www.w3.org/1999/xlink" viewBox="0 0 512 512" xml:space="preserve" fill="#000000"><g id="SVGRepo_bgCarrier" stroke-width="0"></g><g id="SVGRepo_tracerCarrier" stroke-linecap="round" stroke-linejoin="round" stroke="#fafafa" stroke-width="19.456"> <path style="fill:#DBE1F1;" d="M439.541,264.237v231.068c0,9.238-7.345,16.696-16.584,16.696H89.044 c-9.239,0-16.696-7.457-16.696-16.696V264.237L256.001,80.584L439.541,264.237z"></path> <path style="fill:#D0D5E5;" d="M439.541,264.237v231.068c0,9.238-7.345,16.696-16.584,16.696H256.001V80.584L439.541,264.237z"></path> <path style="fill:#429eff;" d="M491.742,285.83c-19.59,19.59-51.199,19.59-70.788,0L256.001,120.877L91.046,285.83 c-19.478,19.59-51.31,19.59-70.788,0c-19.59-19.59-19.59-51.2,0-70.79L220.606,14.692C230.066,5.231,242.644,0,256.001,0 c13.357,0,25.935,5.231,35.394,14.692L491.742,215.04C511.332,234.63,511.332,266.24,491.742,285.83z"></path> <path style="fill:#7CCC92;" d="M265.351,203.13c-2.894-1.892-6.122-2.783-9.351-2.783s-6.457,0.89-9.351,2.783 c-3.004,2.115-74.128,50.643-74.128,114.087c0,65.67,73.795,97.503,77.021,98.838c2.005,0.89,4.231,1.336,6.457,1.336 c2.226,0,4.452-0.445,6.457-1.336c3.227-1.336,77.021-33.169,77.021-98.838C339.479,253.774,268.355,205.245,265.351,203.13z"></path> <path style="fill:#34B772;" d="M339.479,317.217c0,65.67-73.795,97.503-77.021,98.838c-2.005,0.89-4.231,1.336-6.457,1.336V200.348 c3.228,0,6.457,0.89,9.351,2.783C268.355,205.245,339.479,253.774,339.479,317.217z"></path> <path style="fill:#DDDD47;" d="M272.585,317.217v100.174c0,9.238-7.345,16.696-16.584,16.696c-9.239,0-16.696-7.457-16.696-16.696 V317.217c0-9.238,7.456-16.696,16.696-16.696C265.24,300.522,272.585,307.979,272.585,317.217z"></path> <path style="fill:#C7D100;" d="M272.585,317.217v100.174c0,9.238-7.345,16.696-16.584,16.696V300.522 C265.24,300.522,272.585,307.979,272.585,317.217z"></path> <path style="fill:#0a68ff;" d="M491.742,285.83c-19.59,19.59-51.199,19.59-70.788,0L256.001,120.877V0 c13.357,0,25.935,5.231,35.394,14.692L491.742,215.04C511.332,234.63,511.332,266.24,491.742,285.83z"></path> </g><g id="SVGRepo_iconCarrier"> <path style="fill:#DBE1F1;" d="M439.541,264.237v231.068c0,9.238-7.345,16.696-16.584,16.696H89.044 c-9.239,0-16.696-7.457-16.696-16.696V264.237L256.001,80.584L439.541,264.237z"></path> <path style="fill:#D0D5E5;" d="M439.541,264.237v231.068c0,9.238-7.345,16.696-16.584,16.696H256.001V80.584L439.541,264.237z"></path> <path style="fill:#429eff;" d="M491.742,285.83c-19.59,19.59-51.199,19.59-70.788,0L256.001,120.877L91.046,285.83 c-19.478,19.59-51.31,19.59-70.788,0c-19.59-19.59-19.59-51.2,0-70.79L220.606,14.692C230.066,5.231,242.644,0,256.001,0 c13.357,0,25.935,5.231,35.394,14.692L491.742,215.04C511.332,234.63,511.332,266.24,491.742,285.83z"></path> <path style="fill:#7CCC92;" d="M265.351,203.13c-2.894-1.892-6.122-2.783-9.351-2.783s-6.457,0.89-9.351,2.783 c-3.004,2.115-74.128,50.643-74.128,114.087c0,65.67,73.795,97.503,77.021,98.838c2.005,0.89,4.231,1.336,6.457,1.336 c2.226,0,4.452-0.445,6.457-1.336c3.227-1.336,77.021-33.169,77.021-98.838C339.479,253.774,268.355,205.245,265.351,203.13z"></path> <path style="fill:#34B772;" d="M339.479,317.217c0,65.67-73.795,97.503-77.021,98.838c-2.005,0.89-4.231,1.336-6.457,1.336V200.348 c3.228,0,6.457,0.89,9.351,2.783C268.355,205.245,339.479,253.774,339.479,317.217z"></path> <path style="fill:#DDDD47;" d="M272.585,317.217v100.174c0,9.238-7.345,16.696-16.584,16.696c-9.239,0-16.696-7.457-16.696-16.696 V317.217c0-9.238,7.456-16.696,16.696-16.696C265.24,300.522,272.585,307.979,272.585,317.217z"></path> <path style="fill:#C7D100;" d="M272.585,317.217v100.174c0,9.238-7.345,16.696-16.584,16.696V300.522 C265.24,300.522,272.585,307.979,272.585,317.217z"></path> <path style="fill:#0a68ff;" d="M491.742,285.83c-19.59,19.59-51.199,19.59-70.788,0L256.001,120.877V0 c13.357,0,25.935,5.231,35.394,14.692L491.742,215.04C511.332,234.63,511.332,266.24,491.742,285.83z"></path> </g></svg>