<svg version="1.1" id="Capa_1" xmlns="http://www.w3.org/2000/svg" xmlns:xlink="http://www.w3.org/1999/xlink" viewBox="0 0 460 460" xml:space="preserve" fill="#000000"><g id="SVGRepo_bgCarrier" stroke-width="0"></g><g id="SVGRepo_tracerCarrier" stroke-linecap="round" stroke-linejoin="round"></g><g id="SVGRepo_iconCarrier"> <g> <rect x="100" y="250" style="fill:#3FC3D8;" width="130" height="210"></rect> <path style="fill:#3FC3D8;" d="M230,90c-49.63,0-90-40.37-90-90h-38.982L0,89.897l59.445,66.8L100,120.493V210h130V90z"></path> <polygon style="fill:#1398AD;" points="280,338.98 280,250 230,250 230,460 360,460 360,338.98 "></polygon> <path style="fill:#1398AD;" d="M358.982,0H320c0,49.63-40.37,90-90,90v120h130v-89.507l40.555,36.204L460,89.897L358.982,0z"></path> <path style="fill:#3FC3D8;" d="M230,90c49.63,0,90-40.37,90-90h-40c0,27.57-22.43,50-50,50V90z"></path> <path style="fill:#6BE0F4;" d="M230,90V50c-27.57,0-50-22.43-50-50h-40C140,49.63,180.37,90,230,90z"></path> <rect x="230" y="210" style="fill:#3FC3D8;" width="50" height="40"></rect> <rect x="320" y="210" style="fill:#3FC3D8;" width="40" height="128.98"></rect> <rect x="280" y="210" style="fill:#6BE0F4;" width="40" height="128.98"></rect> <rect x="100" y="210" style="fill:#6BE0F4;" width="130" height="40"></rect> </g> </g></svg>